<mxfile host="app.diagrams.net" modified="2023-06-28T22:53:38.427Z" agent="Mozilla/5.0 (Windows NT 10.0; Win64; x64) AppleWebKit/537.36 (KHTML, like Gecko) Chrome/113.0.0.0 Safari/537.36 OPR/99.0.0.0" version="21.5.2" etag="K3iPjOw2tdUFNeEvhEHs" type="github">
  <diagram name="PÃ¡gina-1" id="j-RSbjmW-S9oaAU9vvns">
    <mxGraphModel>
      <root>
        <mxCell id="0" />
        <mxCell id="1" parent="0" />
      </root>
    </mxGraphModel>
  </diagram>
</mxfile>
